<svg xmlns="http://www.w3.org/2000/svg" xmlns:xlink="http://www.w3.org/1999/xlink" width="100" zoomAndPan="magnify" viewBox="0 0 75 74.999997" height="100" preserveAspectRatio="xMidYMid meet" version="1.0"><path fill="#ffffff" d="M 37.5 0 C 58.214844 0 75 16.800781 75 37.5 C 75 56.257812 58.199219 75 37.5 75 C 16.800781 75 0 58.214844 0 37.5 C 0 16.785156 16.800781 0 37.5 0 Z M 37.5 0 " fill-opacity="1" fill-rule="nonzero"/><path fill="#000000" d="M 38.03125 28.859375 L 53.476562 37.792969 L 38.03125 12.46875 Z M 38.03125 28.859375 " fill-opacity="1" fill-rule="nonzero"/><path fill="#000000" d="M 36.984375 28.859375 L 36.984375 12.46875 L 21.523438 37.792969 Z M 36.984375 28.859375 " fill-opacity="1" fill-rule="nonzero"/><path fill="#000000" d="M 38.03125 62.542969 L 53.488281 41.226562 L 38.03125 50.324219 Z M 38.03125 62.542969 " fill-opacity="1" fill-rule="nonzero"/><path fill="#000000" d="M 21.523438 41.226562 L 36.984375 62.542969 L 36.984375 50.324219 Z M 21.523438 41.226562 " fill-opacity="1" fill-rule="nonzero"/><path fill="#000000" d="M 38.03125 29.992188 L 38.03125 47.863281 L 51.457031 40.105469 L 53.488281 38.929688 L 53.476562 38.929688 Z M 38.03125 29.992188 " fill-opacity="1" fill-rule="nonzero"/><path fill="#000000" d="M 36.984375 47.863281 L 36.984375 29.992188 L 21.523438 38.929688 L 24.808594 40.828125 Z M 36.984375 47.863281 " fill-opacity="1" fill-rule="nonzero"/></svg>